<svg id="visual" viewBox="0 0 900 675" width="900" height="675" xmlns="http://www.w3.org/2000/svg" xmlns:xlink="http://www.w3.org/1999/xlink" version="1.1"><g stroke-width="1" stroke-linejoin="bevel"><path d="M491.6 344.5L503.6 397L535.8 350.5Z" fill="#c48679" stroke="#c48679"></path><path d="M503.6 397L562.8 393L535.8 350.5Z" fill="#2c2b3f" stroke="#2c2b3f"></path><path d="M503.6 397L533.8 445.5L562.8 393Z" fill="#60455c" stroke="#60455c"></path><path d="M596.1 315.5L569.8 294L535.8 350.5Z" fill="#00101c" stroke="#00101c"></path><path d="M535.8 350.5L500.6 260L491.6 344.5Z" fill="#00101c" stroke="#00101c"></path><path d="M562.8 393L596.1 315.5L535.8 350.5Z" fill="#60455c" stroke="#60455c"></path><path d="M569.8 294L500.6 260L535.8 350.5Z" fill="#45384f" stroke="#45384f"></path><path d="M384.4 307.5L403.4 396L491.6 344.5Z" fill="#45384f" stroke="#45384f"></path><path d="M491.6 344.5L403.4 396L503.6 397Z" fill="#00101c" stroke="#00101c"></path><path d="M503.6 397L500.6 496.5L533.8 445.5Z" fill="#d59c7d" stroke="#d59c7d"></path><path d="M612.1 440.5L615.1 415L562.8 393Z" fill="#c48679" stroke="#c48679"></path><path d="M562.8 393L615.1 415L596.1 315.5Z" fill="#7b5367" stroke="#7b5367"></path><path d="M533.8 445.5L612.1 440.5L562.8 393Z" fill="#c48679" stroke="#c48679"></path><path d="M389.4 447.5L500.6 496.5L503.6 397Z" fill="#7b5367" stroke="#7b5367"></path><path d="M533.8 445.5L513.6 516L612.1 440.5Z" fill="#161e2e" stroke="#161e2e"></path><path d="M500.6 260L423.4 259L491.6 344.5Z" fill="#7b5367" stroke="#7b5367"></path><path d="M423.4 259L384.4 307.5L491.6 344.5Z" fill="#00101c" stroke="#00101c"></path><path d="M624.1 251L546.8 229.5L569.8 294Z" fill="#2c2b3f" stroke="#2c2b3f"></path><path d="M569.8 294L546.8 229.5L500.6 260Z" fill="#96626f" stroke="#96626f"></path><path d="M500.6 260L505.6 212.5L423.4 259Z" fill="#e1b484" stroke="#e1b484"></path><path d="M346.2 431L389.4 447.5L403.4 396Z" fill="#d59c7d" stroke="#d59c7d"></path><path d="M403.4 396L389.4 447.5L503.6 397Z" fill="#00101c" stroke="#00101c"></path><path d="M384.4 307.5L366.2 352.5L403.4 396Z" fill="#c48679" stroke="#c48679"></path><path d="M399.4 588.5L513.6 516L500.6 496.5Z" fill="#7b5367" stroke="#7b5367"></path><path d="M500.6 496.5L513.6 516L533.8 445.5Z" fill="#60455c" stroke="#60455c"></path><path d="M546.8 229.5L505.6 212.5L500.6 260Z" fill="#45384f" stroke="#45384f"></path><path d="M612.1 440.5L672.3 384L615.1 415Z" fill="#7b5367" stroke="#7b5367"></path><path d="M615.1 415L672.3 384L596.1 315.5Z" fill="#d59c7d" stroke="#d59c7d"></path><path d="M596.1 315.5L624.1 251L569.8 294Z" fill="#00101c" stroke="#00101c"></path><path d="M679.3 289L624.1 251L596.1 315.5Z" fill="#7b5367" stroke="#7b5367"></path><path d="M546.8 229.5L515.6 154L505.6 212.5Z" fill="#d59c7d" stroke="#d59c7d"></path><path d="M672.3 384L682.3 340.5L596.1 315.5Z" fill="#7b5367" stroke="#7b5367"></path><path d="M366.2 352.5L346.2 431L403.4 396Z" fill="#d59c7d" stroke="#d59c7d"></path><path d="M389.4 447.5L383.4 557L500.6 496.5Z" fill="#96626f" stroke="#96626f"></path><path d="M423.4 259L362.2 265L384.4 307.5Z" fill="#e1b484" stroke="#e1b484"></path><path d="M384.4 307.5L280.9 339.5L366.2 352.5Z" fill="#7b5367" stroke="#7b5367"></path><path d="M273.9 403L307.9 465.5L346.2 431Z" fill="#00101c" stroke="#00101c"></path><path d="M384.4 218.5L362.2 265L423.4 259Z" fill="#45384f" stroke="#45384f"></path><path d="M682.3 340.5L679.3 289L596.1 315.5Z" fill="#00101c" stroke="#00101c"></path><path d="M505.6 212.5L384.4 218.5L423.4 259Z" fill="#ae7374" stroke="#ae7374"></path><path d="M513.6 516L641.1 514L612.1 440.5Z" fill="#e1b484" stroke="#e1b484"></path><path d="M717.3 470.5L732.5 425L672.3 384Z" fill="#161e2e" stroke="#161e2e"></path><path d="M605.1 155L599.1 192.5L688.3 195.5Z" fill="#e1b484" stroke="#e1b484"></path><path d="M624.1 251L599.1 192.5L546.8 229.5Z" fill="#161e2e" stroke="#161e2e"></path><path d="M374.2 146L377.2 214.5L384.4 218.5Z" fill="#161e2e" stroke="#161e2e"></path><path d="M401.4 132L384.4 218.5L505.6 212.5Z" fill="#60455c" stroke="#60455c"></path><path d="M384.4 218.5L377.2 214.5L362.2 265Z" fill="#2c2b3f" stroke="#2c2b3f"></path><path d="M513.6 516L583.8 567L641.1 514Z" fill="#2c2b3f" stroke="#2c2b3f"></path><path d="M561.8 598.5L583.8 567L513.6 516Z" fill="#ae7374" stroke="#ae7374"></path><path d="M599.1 192.5L515.6 154L546.8 229.5Z" fill="#45384f" stroke="#45384f"></path><path d="M307.9 465.5L333.2 494.5L346.2 431Z" fill="#60455c" stroke="#60455c"></path><path d="M346.2 431L333.2 494.5L389.4 447.5Z" fill="#96626f" stroke="#96626f"></path><path d="M273.9 403L346.2 431L366.2 352.5Z" fill="#ae7374" stroke="#ae7374"></path><path d="M335.2 515L389.4 447.5L333.2 494.5Z" fill="#96626f" stroke="#96626f"></path><path d="M335.2 515L383.4 557L389.4 447.5Z" fill="#ae7374" stroke="#ae7374"></path><path d="M717.3 470.5L672.3 384L612.1 440.5Z" fill="#c48679" stroke="#c48679"></path><path d="M672.3 384L732.5 425L682.3 340.5Z" fill="#2c2b3f" stroke="#2c2b3f"></path><path d="M682.3 340.5L790.5 334.5L679.3 289Z" fill="#00101c" stroke="#00101c"></path><path d="M271.9 541L335.2 515L333.2 494.5Z" fill="#96626f" stroke="#96626f"></path><path d="M641.1 514L717.3 470.5L612.1 440.5Z" fill="#c48679" stroke="#c48679"></path><path d="M735.5 519L717.3 470.5L641.1 514Z" fill="#00101c" stroke="#00101c"></path><path d="M257.9 263L280.9 339.5L362.2 265Z" fill="#2c2b3f" stroke="#2c2b3f"></path><path d="M362.2 265L280.9 339.5L384.4 307.5Z" fill="#c48679" stroke="#c48679"></path><path d="M688.3 195.5L599.1 192.5L624.1 251Z" fill="#45384f" stroke="#45384f"></path><path d="M599.1 192.5L605.1 155L515.6 154Z" fill="#00101c" stroke="#00101c"></path><path d="M399.4 588.5L506.6 603.5L513.6 516Z" fill="#e1b484" stroke="#e1b484"></path><path d="M506.6 603.5L561.8 598.5L513.6 516Z" fill="#7b5367" stroke="#7b5367"></path><path d="M715.3 551L735.5 519L641.1 514Z" fill="#00101c" stroke="#00101c"></path><path d="M280.9 339.5L273.9 403L366.2 352.5Z" fill="#7b5367" stroke="#7b5367"></path><path d="M679.3 289L688.3 195.5L624.1 251Z" fill="#45384f" stroke="#45384f"></path><path d="M767.5 247L688.3 195.5L679.3 289Z" fill="#2c2b3f" stroke="#2c2b3f"></path><path d="M376.2 602.5L399.4 588.5L383.4 557Z" fill="#2c2b3f" stroke="#2c2b3f"></path><path d="M383.4 557L399.4 588.5L500.6 496.5Z" fill="#161e2e" stroke="#161e2e"></path><path d="M605.1 155L563.8 120L515.6 154Z" fill="#60455c" stroke="#60455c"></path><path d="M515.6 154L401.4 132L505.6 212.5Z" fill="#45384f" stroke="#45384f"></path><path d="M615.1 67.5L563.8 120L605.1 155Z" fill="#161e2e" stroke="#161e2e"></path><path d="M497.6 98.5L401.4 132L515.6 154Z" fill="#d59c7d" stroke="#d59c7d"></path><path d="M261.9 215.5L257.9 263L362.2 265Z" fill="#96626f" stroke="#96626f"></path><path d="M401.4 132L374.2 146L384.4 218.5Z" fill="#2c2b3f" stroke="#2c2b3f"></path><path d="M563.8 120L497.6 98.5L515.6 154Z" fill="#7b5367" stroke="#7b5367"></path><path d="M717.3 470.5L780.5 465.5L732.5 425Z" fill="#45384f" stroke="#45384f"></path><path d="M715.3 551L641.1 514L634.1 617.5Z" fill="#45384f" stroke="#45384f"></path><path d="M335.2 515L376.2 602.5L383.4 557Z" fill="#45384f" stroke="#45384f"></path><path d="M475.6 675L529.8 675L506.6 603.5Z" fill="#7b5367" stroke="#7b5367"></path><path d="M271.9 541L376.2 602.5L335.2 515Z" fill="#e1b484" stroke="#e1b484"></path><path d="M271.9 541L333.2 494.5L307.9 465.5Z" fill="#2c2b3f" stroke="#2c2b3f"></path><path d="M261.9 215.5L362.2 265L377.2 214.5Z" fill="#e1b484" stroke="#e1b484"></path><path d="M280.9 339.5L221.7 364.5L273.9 403Z" fill="#2c2b3f" stroke="#2c2b3f"></path><path d="M634.1 617.5L641.1 514L583.8 567Z" fill="#7b5367" stroke="#7b5367"></path><path d="M561.8 598.5L634.1 617.5L583.8 567Z" fill="#00101c" stroke="#00101c"></path><path d="M622.1 675L634.1 617.5L561.8 598.5Z" fill="#60455c" stroke="#60455c"></path><path d="M664.3 631.5L634.1 617.5L622.1 675Z" fill="#45384f" stroke="#45384f"></path><path d="M809.8 408L790.5 334.5L732.5 425Z" fill="#ae7374" stroke="#ae7374"></path><path d="M732.5 425L790.5 334.5L682.3 340.5Z" fill="#e1b484" stroke="#e1b484"></path><path d="M257.9 263L237.7 294L280.9 339.5Z" fill="#161e2e" stroke="#161e2e"></path><path d="M790.5 334.5L767.5 247L679.3 289Z" fill="#c48679" stroke="#c48679"></path><path d="M815.8 446.5L780.5 465.5L827.8 513Z" fill="#c48679" stroke="#c48679"></path><path d="M735.5 519L780.5 465.5L717.3 470.5Z" fill="#e1b484" stroke="#e1b484"></path><path d="M221.7 364.5L230.7 436L273.9 403Z" fill="#d59c7d" stroke="#d59c7d"></path><path d="M273.9 403L230.7 436L307.9 465.5Z" fill="#96626f" stroke="#96626f"></path><path d="M237.7 294L221.7 364.5L280.9 339.5Z" fill="#96626f" stroke="#96626f"></path><path d="M788.5 187.5L698.3 147L688.3 195.5Z" fill="#7b5367" stroke="#7b5367"></path><path d="M688.3 195.5L698.3 147L605.1 155Z" fill="#161e2e" stroke="#161e2e"></path><path d="M563.8 120L543.8 76.5L497.6 98.5Z" fill="#2c2b3f" stroke="#2c2b3f"></path><path d="M279.9 140L261.9 215.5L377.2 214.5Z" fill="#d59c7d" stroke="#d59c7d"></path><path d="M257.9 263L181.7 221.5L237.7 294Z" fill="#e1b484" stroke="#e1b484"></path><path d="M615.1 67.5L543.8 76.5L563.8 120Z" fill="#d59c7d" stroke="#d59c7d"></path><path d="M497.6 98.5L404.4 65.5L401.4 132Z" fill="#00101c" stroke="#00101c"></path><path d="M230.7 436L271.9 541L307.9 465.5Z" fill="#45384f" stroke="#45384f"></path><path d="M780.5 465.5L809.8 408L732.5 425Z" fill="#c48679" stroke="#c48679"></path><path d="M634.1 617.5L664.3 631.5L715.3 551Z" fill="#60455c" stroke="#60455c"></path><path d="M827.8 513L780.5 465.5L735.5 519Z" fill="#7b5367" stroke="#7b5367"></path><path d="M529.8 675L561.8 598.5L506.6 603.5Z" fill="#00101c" stroke="#00101c"></path><path d="M475.6 675L506.6 603.5L399.4 588.5Z" fill="#45384f" stroke="#45384f"></path><path d="M421.4 675L399.4 588.5L376.2 602.5Z" fill="#00101c" stroke="#00101c"></path><path d="M421.4 675L475.6 675L399.4 588.5Z" fill="#00101c" stroke="#00101c"></path><path d="M769.5 591.5L735.5 519L715.3 551Z" fill="#00101c" stroke="#00101c"></path><path d="M780.5 465.5L815.8 446.5L809.8 408Z" fill="#60455c" stroke="#60455c"></path><path d="M698.3 147L615.1 67.5L605.1 155Z" fill="#00101c" stroke="#00101c"></path><path d="M337.2 675L421.4 675L376.2 602.5Z" fill="#00101c" stroke="#00101c"></path><path d="M401.4 132L368.2 55.5L374.2 146Z" fill="#96626f" stroke="#96626f"></path><path d="M374.2 146L279.9 140L377.2 214.5Z" fill="#96626f" stroke="#96626f"></path><path d="M486.6 0L404.4 65.5L497.6 98.5Z" fill="#60455c" stroke="#60455c"></path><path d="M368.2 55.5L404.4 65.5L395.4 0Z" fill="#45384f" stroke="#45384f"></path><path d="M287.9 83.5L279.9 140L374.2 146Z" fill="#45384f" stroke="#45384f"></path><path d="M261.9 215.5L181.7 221.5L257.9 263Z" fill="#60455c" stroke="#60455c"></path><path d="M790.5 334.5L824.8 282L767.5 247Z" fill="#7b5367" stroke="#7b5367"></path><path d="M767.5 247L788.5 187.5L688.3 195.5Z" fill="#00101c" stroke="#00101c"></path><path d="M860.8 367.5L824.8 282L790.5 334.5Z" fill="#7b5367" stroke="#7b5367"></path><path d="M860.8 367.5L790.5 334.5L809.8 408Z" fill="#2c2b3f" stroke="#2c2b3f"></path><path d="M529.8 675L622.1 675L561.8 598.5Z" fill="#7b5367" stroke="#7b5367"></path><path d="M823.8 202.5L788.5 187.5L767.5 247Z" fill="#2c2b3f" stroke="#2c2b3f"></path><path d="M698.3 147L715.3 90.5L615.1 67.5Z" fill="#ae7374" stroke="#ae7374"></path><path d="M111.5 421L195.7 473.5L230.7 436Z" fill="#e1b484" stroke="#e1b484"></path><path d="M230.7 436L195.7 473.5L271.9 541Z" fill="#d59c7d" stroke="#d59c7d"></path><path d="M271.9 541L264.9 619.5L376.2 602.5Z" fill="#161e2e" stroke="#161e2e"></path><path d="M111.5 421L230.7 436L221.7 364.5Z" fill="#d59c7d" stroke="#d59c7d"></path><path d="M731.5 675L769.5 591.5L664.3 631.5Z" fill="#60455c" stroke="#60455c"></path><path d="M664.3 631.5L769.5 591.5L715.3 551Z" fill="#96626f" stroke="#96626f"></path><path d="M486.6 0L497.6 98.5L543.8 76.5Z" fill="#d59c7d" stroke="#d59c7d"></path><path d="M404.4 65.5L368.2 55.5L401.4 132Z" fill="#7b5367" stroke="#7b5367"></path><path d="M779.5 107L715.3 90.5L698.3 147Z" fill="#45384f" stroke="#45384f"></path><path d="M769.5 591.5L827.8 513L735.5 519Z" fill="#00101c" stroke="#00101c"></path><path d="M900 406L860.8 367.5L809.8 408Z" fill="#c48679" stroke="#c48679"></path><path d="M622.1 675L677.3 675L664.3 631.5Z" fill="#00101c" stroke="#00101c"></path><path d="M900 406L809.8 408L815.8 446.5Z" fill="#ae7374" stroke="#ae7374"></path><path d="M824.8 282L823.8 202.5L767.5 247Z" fill="#ae7374" stroke="#ae7374"></path><path d="M190.7 623.5L264.9 619.5L271.9 541Z" fill="#60455c" stroke="#60455c"></path><path d="M264.9 619.5L337.2 675L376.2 602.5Z" fill="#00101c" stroke="#00101c"></path><path d="M900 220.5L823.8 202.5L824.8 282Z" fill="#00101c" stroke="#00101c"></path><path d="M788.5 187.5L779.5 107L698.3 147Z" fill="#d59c7d" stroke="#d59c7d"></path><path d="M164.5 203.5L181.7 221.5L261.9 215.5Z" fill="#ae7374" stroke="#ae7374"></path><path d="M237.7 294L135.5 305.5L221.7 364.5Z" fill="#7b5367" stroke="#7b5367"></path><path d="M164.5 203.5L261.9 215.5L279.9 140Z" fill="#7b5367" stroke="#7b5367"></path><path d="M368.2 55.5L287.9 83.5L374.2 146Z" fill="#2c2b3f" stroke="#2c2b3f"></path><path d="M195.7 473.5L180.7 528L271.9 541Z" fill="#7b5367" stroke="#7b5367"></path><path d="M147.5 518L180.7 528L195.7 473.5Z" fill="#7b5367" stroke="#7b5367"></path><path d="M580.8 0L543.8 76.5L615.1 67.5Z" fill="#2c2b3f" stroke="#2c2b3f"></path><path d="M580.8 0L486.6 0L543.8 76.5Z" fill="#c48679" stroke="#c48679"></path><path d="M368.2 55.5L329.2 0L287.9 83.5Z" fill="#00101c" stroke="#00101c"></path><path d="M632.1 0L580.8 0L615.1 67.5Z" fill="#ae7374" stroke="#ae7374"></path><path d="M858.8 110L779.5 107L788.5 187.5Z" fill="#161e2e" stroke="#161e2e"></path><path d="M713.3 0L632.1 0L615.1 67.5Z" fill="#e1b484" stroke="#e1b484"></path><path d="M677.3 675L731.5 675L664.3 631.5Z" fill="#c48679" stroke="#c48679"></path><path d="M900 551L900 479.5L827.8 513Z" fill="#d59c7d" stroke="#d59c7d"></path><path d="M181.7 221.5L135.5 305.5L237.7 294Z" fill="#ae7374" stroke="#ae7374"></path><path d="M185.7 675L284.9 675L264.9 619.5Z" fill="#45384f" stroke="#45384f"></path><path d="M264.9 619.5L284.9 675L337.2 675Z" fill="#161e2e" stroke="#161e2e"></path><path d="M184.7 103L164.5 203.5L279.9 140Z" fill="#161e2e" stroke="#161e2e"></path><path d="M181.7 221.5L113.5 257L135.5 305.5Z" fill="#ae7374" stroke="#ae7374"></path><path d="M486.6 0L395.4 0L404.4 65.5Z" fill="#c48679" stroke="#c48679"></path><path d="M713.3 0L615.1 67.5L715.3 90.5Z" fill="#60455c" stroke="#60455c"></path><path d="M900 479.5L900 406L815.8 446.5Z" fill="#2c2b3f" stroke="#2c2b3f"></path><path d="M860.8 367.5L900 322.5L824.8 282Z" fill="#2c2b3f" stroke="#2c2b3f"></path><path d="M900 479.5L815.8 446.5L827.8 513Z" fill="#2c2b3f" stroke="#2c2b3f"></path><path d="M900 406L900 322.5L860.8 367.5Z" fill="#d59c7d" stroke="#d59c7d"></path><path d="M823.8 202.5L858.8 110L788.5 187.5Z" fill="#e1b484" stroke="#e1b484"></path><path d="M120.5 499.5L147.5 518L195.7 473.5Z" fill="#96626f" stroke="#96626f"></path><path d="M180.7 528L190.7 623.5L271.9 541Z" fill="#60455c" stroke="#60455c"></path><path d="M900 322.5L900 265L824.8 282Z" fill="#e1b484" stroke="#e1b484"></path><path d="M851.8 36.5L751.5 44.5L779.5 107Z" fill="#00101c" stroke="#00101c"></path><path d="M779.5 107L751.5 44.5L715.3 90.5Z" fill="#7b5367" stroke="#7b5367"></path><path d="M135.5 305.5L111.5 421L221.7 364.5Z" fill="#00101c" stroke="#00101c"></path><path d="M852.8 617.5L827.8 513L769.5 591.5Z" fill="#96626f" stroke="#96626f"></path><path d="M144.5 634.5L190.7 623.5L180.7 528Z" fill="#00101c" stroke="#00101c"></path><path d="M395.4 0L329.2 0L368.2 55.5Z" fill="#7b5367" stroke="#7b5367"></path><path d="M287.9 83.5L216.7 70.5L279.9 140Z" fill="#161e2e" stroke="#161e2e"></path><path d="M111.5 421L120.5 499.5L195.7 473.5Z" fill="#161e2e" stroke="#161e2e"></path><path d="M147.5 518L99.2 546L180.7 528Z" fill="#45384f" stroke="#45384f"></path><path d="M164.5 203.5L113.5 257L181.7 221.5Z" fill="#c48679" stroke="#c48679"></path><path d="M135.5 305.5L84.2 327.5L111.5 421Z" fill="#60455c" stroke="#60455c"></path><path d="M64.2 174.5L113.5 257L164.5 203.5Z" fill="#2c2b3f" stroke="#2c2b3f"></path><path d="M900 265L900 220.5L824.8 282Z" fill="#d59c7d" stroke="#d59c7d"></path><path d="M300.9 0L216.7 70.5L287.9 83.5Z" fill="#00101c" stroke="#00101c"></path><path d="M751.5 44.5L713.3 0L715.3 90.5Z" fill="#161e2e" stroke="#161e2e"></path><path d="M216.7 70.5L184.7 103L279.9 140Z" fill="#ae7374" stroke="#ae7374"></path><path d="M829.8 675L852.8 617.5L769.5 591.5Z" fill="#7b5367" stroke="#7b5367"></path><path d="M329.2 0L300.9 0L287.9 83.5Z" fill="#2c2b3f" stroke="#2c2b3f"></path><path d="M132.5 74.5L184.7 103L216.7 70.5Z" fill="#45384f" stroke="#45384f"></path><path d="M132.5 74.5L169.5 110L184.7 103Z" fill="#00101c" stroke="#00101c"></path><path d="M184.7 103L169.5 110L164.5 203.5Z" fill="#7b5367" stroke="#7b5367"></path><path d="M51.2 292L84.2 327.5L113.5 257Z" fill="#96626f" stroke="#96626f"></path><path d="M113.5 257L84.2 327.5L135.5 305.5Z" fill="#e1b484" stroke="#e1b484"></path><path d="M75.2 493.5L99.2 546L120.5 499.5Z" fill="#d59c7d" stroke="#d59c7d"></path><path d="M852.8 617.5L900 551L827.8 513Z" fill="#2c2b3f" stroke="#2c2b3f"></path><path d="M900 220.5L858.8 110L823.8 202.5Z" fill="#161e2e" stroke="#161e2e"></path><path d="M751.5 44.5L746.5 0L713.3 0Z" fill="#00101c" stroke="#00101c"></path><path d="M850.8 0L746.5 0L751.5 44.5Z" fill="#d59c7d" stroke="#d59c7d"></path><path d="M731.5 675L829.8 675L769.5 591.5Z" fill="#7b5367" stroke="#7b5367"></path><path d="M852.8 617.5L900 616.5L900 551Z" fill="#ae7374" stroke="#ae7374"></path><path d="M144.5 634.5L185.7 675L190.7 623.5Z" fill="#45384f" stroke="#45384f"></path><path d="M190.7 623.5L185.7 675L264.9 619.5Z" fill="#96626f" stroke="#96626f"></path><path d="M75.2 493.5L120.5 499.5L111.5 421Z" fill="#ae7374" stroke="#ae7374"></path><path d="M120.5 499.5L99.2 546L147.5 518Z" fill="#00101c" stroke="#00101c"></path><path d="M99.2 546L144.5 634.5L180.7 528Z" fill="#7b5367" stroke="#7b5367"></path><path d="M55.2 394L75.2 493.5L111.5 421Z" fill="#45384f" stroke="#45384f"></path><path d="M84.2 327.5L55.2 394L111.5 421Z" fill="#161e2e" stroke="#161e2e"></path><path d="M0 334.5L55.2 394L84.2 327.5Z" fill="#ae7374" stroke="#ae7374"></path><path d="M900 675L900 616.5L852.8 617.5Z" fill="#60455c" stroke="#60455c"></path><path d="M64.2 174.5L51.2 292L113.5 257Z" fill="#60455c" stroke="#60455c"></path><path d="M900 220.5L900 104L858.8 110Z" fill="#ae7374" stroke="#ae7374"></path><path d="M858.8 110L851.8 36.5L779.5 107Z" fill="#c48679" stroke="#c48679"></path><path d="M900 91.5L851.8 36.5L858.8 110Z" fill="#c48679" stroke="#c48679"></path><path d="M900 104L900 91.5L858.8 110Z" fill="#60455c" stroke="#60455c"></path><path d="M179.7 0L132.5 74.5L216.7 70.5Z" fill="#ae7374" stroke="#ae7374"></path><path d="M90.2 118L64.2 174.5L164.5 203.5Z" fill="#2c2b3f" stroke="#2c2b3f"></path><path d="M90.2 118L164.5 203.5L169.5 110Z" fill="#161e2e" stroke="#161e2e"></path><path d="M132.5 74.5L90.2 118L169.5 110Z" fill="#e1b484" stroke="#e1b484"></path><path d="M300.9 0L179.7 0L216.7 70.5Z" fill="#96626f" stroke="#96626f"></path><path d="M132.5 74.5L64.2 79.5L90.2 118Z" fill="#60455c" stroke="#60455c"></path><path d="M829.8 675L900 675L852.8 617.5Z" fill="#60455c" stroke="#60455c"></path><path d="M99.2 675L120.5 675L144.5 634.5Z" fill="#45384f" stroke="#45384f"></path><path d="M144.5 634.5L120.5 675L185.7 675Z" fill="#00101c" stroke="#00101c"></path><path d="M71.2 631.5L144.5 634.5L99.2 546Z" fill="#2c2b3f" stroke="#2c2b3f"></path><path d="M900 0L850.8 0L851.8 36.5Z" fill="#d59c7d" stroke="#d59c7d"></path><path d="M851.8 36.5L850.8 0L751.5 44.5Z" fill="#ae7374" stroke="#ae7374"></path><path d="M179.7 0L156.5 0L132.5 74.5Z" fill="#c48679" stroke="#c48679"></path><path d="M0 248L0 334.5L51.2 292Z" fill="#96626f" stroke="#96626f"></path><path d="M51.2 292L0 334.5L84.2 327.5Z" fill="#161e2e" stroke="#161e2e"></path><path d="M55.2 394L0 465.5L75.2 493.5Z" fill="#96626f" stroke="#96626f"></path><path d="M0 513L71.2 631.5L99.2 546Z" fill="#96626f" stroke="#96626f"></path><path d="M0 513L99.2 546L75.2 493.5Z" fill="#e1b484" stroke="#e1b484"></path><path d="M71.2 631.5L99.2 675L144.5 634.5Z" fill="#2c2b3f" stroke="#2c2b3f"></path><path d="M0 334.5L0 424L55.2 394Z" fill="#00101c" stroke="#00101c"></path><path d="M0 424L0 465.5L55.2 394Z" fill="#96626f" stroke="#96626f"></path><path d="M64.2 174.5L0 248L51.2 292Z" fill="#c48679" stroke="#c48679"></path><path d="M0 184.5L0 248L64.2 174.5Z" fill="#2c2b3f" stroke="#2c2b3f"></path><path d="M0 134L64.2 174.5L90.2 118Z" fill="#e1b484" stroke="#e1b484"></path><path d="M0 465.5L0 513L75.2 493.5Z" fill="#2c2b3f" stroke="#2c2b3f"></path><path d="M61.2 0L64.2 79.5L132.5 74.5Z" fill="#ae7374" stroke="#ae7374"></path><path d="M900 91.5L900 0L851.8 36.5Z" fill="#96626f" stroke="#96626f"></path><path d="M0 134L0 184.5L64.2 174.5Z" fill="#60455c" stroke="#60455c"></path><path d="M0 48.5L0 134L64.2 79.5Z" fill="#e1b484" stroke="#e1b484"></path><path d="M64.2 79.5L0 134L90.2 118Z" fill="#00101c" stroke="#00101c"></path><path d="M0 513L0 636.5L71.2 631.5Z" fill="#e1b484" stroke="#e1b484"></path><path d="M71.2 631.5L0 675L99.2 675Z" fill="#c48679" stroke="#c48679"></path><path d="M156.5 0L61.2 0L132.5 74.5Z" fill="#7b5367" stroke="#7b5367"></path><path d="M0 636.5L0 675L71.2 631.5Z" fill="#2c2b3f" stroke="#2c2b3f"></path><path d="M61.2 0L0 48.5L64.2 79.5Z" fill="#ae7374" stroke="#ae7374"></path><path d="M61.2 0L0 0L0 48.5Z" fill="#96626f" stroke="#96626f"></path></g></svg>